<svg width="32" height="32" viewBox="0 0 32 32" fill="none" xmlns="http://www.w3.org/2000/svg">
  <!-- Background with modern gradient -->
  <rect width="32" height="32" rx="6" fill="url(#modernGradient)"/>
  
  <!-- Rocket icon centered and larger for better visibility -->
  <g transform="translate(16, 16) scale(1.3)">
    <!-- Rocket body - larger and more prominent -->
    <path d="M0 -11 L-3.5 -6.5 L-3.5 0 L-2.5 3.5 L2.5 3.5 L3.5 0 L3.5 -6.5 Z" fill="white" stroke="none"/>
    
    <!-- Rocket tip -->
    <path d="M0 -11 L-2.5 -8.5 L2.5 -8.5 Z" fill="#60A5FA" stroke="none"/>
    
    <!-- Side fins - slightly larger -->
    <path d="M-3.5 -2 L-5.5 1.5 L-3.5 2.5 Z" fill="#E5E7EB" stroke="none"/>
    <path d="M3.5 -2 L5.5 1.5 L3.5 2.5 Z" fill="#E5E7EB" stroke="none"/>
    
    <!-- Window/porthole - larger -->
    <circle cx="0" cy="-3" r="2" fill="#3B82F6" stroke="none"/>
    
    <!-- Flame trail - more prominent -->
    <path d="M-2 3.5 L0 9 L2 3.5 Z" fill="url(#flameGradient)" stroke="none"/>
    <path d="M-1.2 3.5 L0 7 L1.2 3.5 Z" fill="url(#innerFlame)" stroke="none"/>
  </g>
  
  <defs>
    <!-- Modern brand gradient -->
    <linearGradient id="modernGradient" x1="0%" y1="0%" x2="100%" y2="100%">
      <stop offset="0%" style="stop-color:#1E293B;stop-opacity:1" />
      <stop offset="50%" style="stop-color:#334155;stop-opacity:1" />
      <stop offset="100%" style="stop-color:#475569;stop-opacity:1" />
    </linearGradient>
    
    <!-- Flame gradient -->
    <linearGradient id="flameGradient" x1="0%" y1="0%" x2="0%" y2="100%">
      <stop offset="0%" style="stop-color:#F59E0B;stop-opacity:1" />
      <stop offset="50%" style="stop-color:#EF4444;stop-opacity:1" />
      <stop offset="100%" style="stop-color:#DC2626;stop-opacity:1" />
    </linearGradient>
    
    <!-- Inner flame -->
    <linearGradient id="innerFlame" x1="0%" y1="0%" x2="0%" y2="100%">
      <stop offset="0%" style="stop-color:#FDE047;stop-opacity:1" />
      <stop offset="100%" style="stop-color:#F59E0B;stop-opacity:1" />
    </linearGradient>
  </defs>
</svg>
